<?xml version="1.0" encoding="UTF-8" standalone="no"?>
<svg
   xmlns:dc="http://purl.org/dc/elements/1.1/"
   xmlns:cc="http://creativecommons.org/ns#"
   xmlns:rdf="http://www.w3.org/1999/02/22-rdf-syntax-ns#"
   xmlns:svg="http://www.w3.org/2000/svg"
   xmlns="http://www.w3.org/2000/svg"
   xmlns:sodipodi="http://sodipodi.sourceforge.net/DTD/sodipodi-0.dtd"
   xmlns:inkscape="http://www.inkscape.org/namespaces/inkscape"
   inkscape:version="1.0 (4035a4fb49, 2020-05-01)"
   sodipodi:docname="pager.svg"
   id="svg31"
   version="1"
   height="23"
   width="15.344">
  <metadata
     id="metadata37">
    <rdf:RDF>
      <cc:Work
         rdf:about="">
        <dc:format>image/svg+xml</dc:format>
        <dc:type
           rdf:resource="http://purl.org/dc/dcmitype/StillImage" />
      </cc:Work>
    </rdf:RDF>
  </metadata>
  <defs
     id="defs35" />
  <sodipodi:namedview
     inkscape:current-layer="svg31"
     inkscape:window-maximized="1"
     inkscape:window-y="0"
     inkscape:window-x="56"
     inkscape:cy="11.765818"
     inkscape:cx="6.7137205"
     inkscape:zoom="27.546421"
     showgrid="false"
     id="namedview33"
     inkscape:window-height="1080"
     inkscape:window-width="1864"
     inkscape:pageshadow="2"
     inkscape:pageopacity="0"
     guidetolerance="10"
     gridtolerance="10"
     objecttolerance="10"
     borderopacity="1"
     bordercolor="#666666"
     pagecolor="#ffffff" />
  <path
     d="m 9.5e-6,1 0,4.999999 1,0 0,-4.999999 -1,0 z"
     style="opacity:0.1;fill:#dfdfdf"
     id="normal-left" />
  <path
     d="m 13.000009,1 0,4.999999 -1,0 0,-4.999999 1,0 z"
     style="opacity:0.1;fill:#dfdfdf"
     id="normal-right" />
  <rect
     y="6"
     x="1"
     height="1"
     width="11"
     style="opacity:0.1;fill:#dfdfdf"
     id="normal-bottom" />
  <path
     d="m 1.0000095,0 0,1 10.9999735,0 0,-1 -10.9999735,0 z"
     style="opacity:0.1;fill:#dfdfdf"
     id="normal-top" />
  <path
     d="m 9.5e-6,9.000001 0,4.999999 1,0 0,-4.999999 -1,0 z"
     style="opacity:0.32;fill:#8be9fd"
     id="hover-left" />
  <path
     d="m 13.000009,9.000001 0,4.999999 -1,0 0,-4.999999 1,0 z"
     style="opacity:0.32;fill:#8be9fd"
     id="hover-right" />
  <path
     d="m 1.0000095,8 0,0.998752 10.9999785,0 0,-0.998752 -10.9999785,0 z"
     style="opacity:0.32;fill:#8be9fd"
     id="hover-top" />
  <path
     d="m 0,17 0,4.999999 1,0 L 1,17 0,17 z"
     style="opacity:0.45;fill:#8be9fd"
     id="active-left" />
  <path
     d="m 12.999999,17 0,4.999999 -1,0 0,-4.999999 1,0 z"
     style="opacity:0.45;fill:#8be9fd"
     id="active-right" />
  <rect
     y="22"
     x="1"
     height="1.001"
     width="11"
     style="opacity:0.45;fill:#8be9fd"
     id="active-bottom" />
  <path
     d="m 1,16 0,1 10.999977,0 0,-1 L 1,16 z"
     style="opacity:0.45;fill:#8be9fd"
     id="active-top" />
  <rect
     transform="scale(1,-1)"
     y="-6"
     x="1"
     height="5"
     width="11"
     style="opacity:0.1;fill:#dfdfdf"
     id="normal-center" />
  <rect
     transform="scale(1,-1)"
     y="-22"
     x="1"
     height="5"
     width="11"
     style="opacity:0.45;fill:#8be9fd"
     id="active-center" />
  <rect
     transform="scale(1,-1)"
     y="-14"
     x="1"
     height="5"
     width="11"
     style="opacity:0.32;fill:#8be9fd"
     id="hover-center" />
  <g
     transform="matrix(2.1999957,0,0,0.99875155,-1.1999862,-2.446941)"
     id="hover-bottom">
    <rect
       id="rect16"
       y="16.47"
       x="1"
       height="1.001"
       width="5"
       style="opacity:0.32;fill:#8be9fd" />
  </g>
  <path
     d="m 9.5e-6,14 c 0,0.552285 0.4477153,1 1,1 l 0,-1 -1,0 z"
     style="opacity:0.32;fill:#8be9fd"
     id="hover-bottomleft" />
  <path
     d="m 9.5e-6,9 c 0,-0.552285 0.4477153,-1 1,-1 l 0,1 -1,0 z"
     style="opacity:0.32;fill:#8be9fd"
     id="hover-topleft" />
  <path
     d="m 13.000009,9 c 0,-0.552285 -0.447715,-1 -1,-1 l 0,1 1,0 z"
     style="opacity:0.32;fill:#8be9fd"
     id="hover-topright" />
  <path
     d="m 13.000009,14 c 0,0.552285 -0.447715,1 -1,1 l 0,-1 1,0 z"
     style="opacity:0.32;fill:#8be9fd"
     id="hover-bottomright" />
  <path
     d="m 9.5e-6,6 c 0,0.552285 0.4477153,1 1,1 l 0,-1 -1,0 z"
     style="opacity:0.1;fill:#dfdfdf"
     id="normal-bottomleft" />
  <path
     d="m 9.5e-6,1 c 0,-0.552285 0.4477153,-1 1,-1 l 0,1 -1,0 z"
     style="opacity:0.1;fill:#dfdfdf"
     id="normal-topleft" />
  <path
     d="m 13.000009,1 c 0,-0.552285 -0.447715,-1 -1,-1 l 0,1 1,0 z"
     style="opacity:0.1;fill:#dfdfdf"
     id="normal-topright" />
  <path
     d="m 13.000009,6 c 0,0.552285 -0.447715,1 -1,1 l 0,-1 1,0 z"
     style="opacity:0.1;fill:#dfdfdf"
     id="normal-bottomright" />
  <path
     d="m 9.5e-6,22 c 0,0.552285 0.4477153,1 1,1 l 0,-1 -1,0 z"
     style="opacity:0.45;fill:#8be9fd"
     id="active-bottomleft" />
  <path
     d="m 9.5e-6,17 c 0,-0.552285 0.4477153,-1 1,-1 l 0,1 -1,0 z"
     style="opacity:0.45;fill:#8be9fd"
     id="active-topleft" />
  <path
     d="m 13.000009,17 c 0,-0.552285 -0.447715,-1 -1,-1 l 0,1 1,0 z"
     style="opacity:0.45;fill:#8be9fd"
     id="active-topright" />
  <path
     d="m 13.000009,22 c 0,0.552285 -0.447715,1 -1,1 l 0,-1 1,0 z"
     style="opacity:0.45;fill:#8be9fd"
     id="active-bottomright" />
</svg>
