<?xml version="1.0" encoding="UTF-8" standalone="no"?>
<svg
   xmlns:dc="http://purl.org/dc/elements/1.1/"
   xmlns:cc="http://creativecommons.org/ns#"
   xmlns:rdf="http://www.w3.org/1999/02/22-rdf-syntax-ns#"
   xmlns:svg="http://www.w3.org/2000/svg"
   xmlns="http://www.w3.org/2000/svg"
   xmlns:sodipodi="http://sodipodi.sourceforge.net/DTD/sodipodi-0.dtd"
   xmlns:inkscape="http://www.inkscape.org/namespaces/inkscape"
   inkscape:version="1.0 (4035a4fb49, 2020-05-01)"
   sodipodi:docname="audio.svg"
   id="svg62"
   version="1.1"
   enable-background="new"
   height="22"
   width="22">
  <metadata
     id="metadata66">
    <rdf:RDF>
      <cc:Work
         rdf:about="">
        <dc:format>image/svg+xml</dc:format>
        <dc:type
           rdf:resource="http://purl.org/dc/dcmitype/StillImage" />
      </cc:Work>
    </rdf:RDF>
  </metadata>
  <sodipodi:namedview
     inkscape:current-layer="svg62"
     inkscape:window-maximized="1"
     inkscape:window-y="0"
     inkscape:window-x="56"
     inkscape:cy="41.550531"
     inkscape:cx="3.506703"
     inkscape:zoom="5.0909091"
     showgrid="false"
     id="namedview64"
     inkscape:window-height="1080"
     inkscape:window-width="1864"
     inkscape:pageshadow="2"
     inkscape:pageopacity="0"
     guidetolerance="10"
     gridtolerance="10"
     objecttolerance="10"
     borderopacity="1"
     bordercolor="#666666"
     pagecolor="#ffffff" />
  <defs
     id="defs3">
    <style
       type="text/css"
       id="current-color-scheme">.ColorScheme-Text { color:#dedede; } .ColorScheme-Highlight { color:#5294e2; } .ColorScheme-ButtonBackground { color:#dedede; }</style>
  </defs>
  <g
     enable-background="new"
     transform="translate(-262 446.63)"
     id="16-16-audio-volume-high">
    <rect
       id="rect5"
       opacity=".1"
       fill="none"
       color="#bebebe"
       height="16"
       width="16"
       y="-413"
       x="265" />
    <path
       id="path7"
       fill="#eaeaea"
       d="m112.04 192.96-4.043 4.0449h-3.002v6h3.0898l3.9551 3.9551zm2 0v1.5c2.32 0.74 4 2.93 4 5.5s-1.68 4.76-4 5.5v1.5c3.15-0.78 5.5-3.6 5.5-7s-2.35-6.22-5.5-7zm0 4v6c1.06-0.58 1.791-1.7 1.791-3s-0.72102-2.42-1.791-3z"
       transform="translate(160.95 -604.96)" />
  </g>
  <g
     transform="translate(0,29)"
     id="audio-volume-high">
    <g
       id="g18"
       fill="#dedede"
       transform="translate(-.5 -6.999)">
      <path
         id="path10"
         style="paint-order:normal"
         d="m4.2778-14 4.4444-3c0.84454-0.57006 1.7778 0.892 1.7778 2v8c0 1.108-0.93324 2.5701-1.7778 2l-4.4444-3c-0.84454-0.57006-1.7778-0.892-1.7778-2v-2c0-1.108 0.93324-1.4299 1.7778-2z" />
      <path
         id="path12"
         style="paint-order:normal"
         d="m13.326-15.141-1.6582 1.0352c-0.0048 0.01377-0.01302 0.02515-0.01758 0.03906a6 6 0 0 1 0.84961 3.0664 6 6 0 0 1-0.84961 3.0645c0.0047 0.0145 0.01262 0.026669 0.01758 0.041016l1.6602 1.0371a8 8 0 0 0 1.1719-4.1426 8 8 0 0 0-1.1738-4.1406z" />
      <path
         id="path14"
         style="paint-order:normal"
         d="m15.869-16.73-1.6953 1.0605a9 9 0 0 1 1.3262 4.6699 9 9 0 0 1-1.3281 4.6699l1.6914 1.0566a11 11 0 0 0 1.6367-5.7266 11 11 0 0 0-1.6309-5.7305z" />
      <path
         id="path16"
         style="paint-order:normal"
         d="m18.41-18.318-1.6992 1.0625a12 12 0 0 1 1.7891 6.2559 12 12 0 0 1-1.7812 6.2617l1.6875 1.0547a14 14 0 0 0 2.0938-7.3164 14 14 0 0 0-2.0898-7.3184z" />
    </g>
    <rect
       id="rect20"
       style="paint-order:normal"
       fill="none"
       ry="0"
       height="22"
       width="22"
       y="-29" />
  </g>
  <g
     transform="translate(22.174 29)"
     id="audio-volume-medium">
    <g
       id="g31"
       fill="#dedede"
       transform="translate(-.5 -6.999)">
      <path
         id="path23"
         style="paint-order:normal"
         d="m4.2778-14 4.4444-3c0.84454-0.57006 1.7778 0.892 1.7778 2v8c0 1.108-0.93324 2.5701-1.7778 2l-4.4444-3c-0.84454-0.57006-1.7778-0.892-1.7778-2v-2c0-1.108 0.93324-1.4299 1.7778-2z" />
      <path
         id="path25"
         style="paint-order:normal"
         d="m13.326-15.141-1.6582 1.0352c-0.0048 0.01377-0.01302 0.02515-0.01758 0.03906a6 6 0 0 1 0.84961 3.0664 6 6 0 0 1-0.84961 3.0645c0.0047 0.0145 0.01262 0.026669 0.01758 0.041016l1.6602 1.0371a8 8 0 0 0 1.1719-4.1426 8 8 0 0 0-1.1738-4.1406z" />
      <path
         id="path27"
         style="paint-order:normal"
         d="m15.869-16.73-1.6953 1.0605a9 9 0 0 1 1.3262 4.6699 9 9 0 0 1-1.3281 4.6699l1.6914 1.0566a11 11 0 0 0 1.6367-5.7266 11 11 0 0 0-1.6309-5.7305z" />
      <path
         id="path29"
         style="paint-order:normal"
         opacity=".35"
         d="m18.41-18.318-1.6992 1.0625a12 12 0 0 1 1.7891 6.2559 12 12 0 0 1-1.7812 6.2617l1.6875 1.0547a14 14 0 0 0 2.0938-7.3164 14 14 0 0 0-2.0898-7.3184z" />
    </g>
    <rect
       id="rect33"
       style="paint-order:normal"
       fill="none"
       ry="0"
       height="22"
       width="22"
       y="-29" />
  </g>
  <g
     transform="translate(46 28.999)"
     id="audio-volume-low">
    <g
       id="g44"
       fill="#dedede"
       transform="translate(-.5 -6.999)">
      <path
         id="path36"
         style="paint-order:normal"
         d="m4.2778-14 4.4444-3c0.84454-0.57006 1.7778 0.892 1.7778 2v8c0 1.108-0.93324 2.5701-1.7778 2l-4.4444-3c-0.84454-0.57006-1.7778-0.892-1.7778-2v-2c0-1.108 0.93324-1.4299 1.7778-2z" />
      <path
         id="path38"
         style="paint-order:normal"
         d="m13.326-15.141-1.6582 1.0352c-0.0048 0.01377-0.01302 0.02515-0.01758 0.03906a6 6 0 0 1 0.84961 3.0664 6 6 0 0 1-0.84961 3.0645c0.0047 0.0145 0.01262 0.026669 0.01758 0.041016l1.6602 1.0371a8 8 0 0 0 1.1719-4.1426 8 8 0 0 0-1.1738-4.1406z" />
      <path
         id="path40"
         style="paint-order:normal"
         opacity=".35"
         d="m15.869-16.73-1.6953 1.0605a9 9 0 0 1 1.3262 4.6699 9 9 0 0 1-1.3281 4.6699l1.6914 1.0566a11 11 0 0 0 1.6367-5.7266 11 11 0 0 0-1.6309-5.7305z" />
      <path
         id="path42"
         style="paint-order:normal"
         opacity=".35"
         d="m18.41-18.318-1.6992 1.0625a12 12 0 0 1 1.7891 6.2559 12 12 0 0 1-1.7812 6.2617l1.6875 1.0547a14 14 0 0 0 2.0938-7.3164 14 14 0 0 0-2.0898-7.3184z" />
    </g>
    <rect
       id="rect46"
       style="paint-order:normal"
       fill="none"
       ry="0"
       height="22"
       width="22"
       y="-29" />
  </g>
  <g
     opacity=".35"
     transform="translate(-24 28.999)"
     id="audio-volume-muted">
    <g
       id="g57"
       style=""
       fill="#dedede"
       transform="translate(-.5 -6.999)">
      <path
         id="path49"
         style="paint-order:normal"
         opacity="1"
         d="m4.2778-14 4.4444-3c0.84454-0.57006 1.7778 0.892 1.7778 2v8c0 1.108-0.93324 2.5701-1.7778 2l-4.4444-3c-0.84454-0.57006-1.7778-0.892-1.7778-2v-2c0-1.108 0.93324-1.4299 1.7778-2z" />
      <path
         id="path51"
         style="paint-order:normal"
         opacity="1"
         d="m13.326-15.141-1.6582 1.0352c-0.0048 0.01377-0.01302 0.02515-0.01758 0.03906a6 6 0 0 1 0.84961 3.0664 6 6 0 0 1-0.84961 3.0645c0.0047 0.0145 0.01262 0.026669 0.01758 0.041016l1.6602 1.0371a8 8 0 0 0 1.1719-4.1426 8 8 0 0 0-1.1738-4.1406z" />
      <path
         id="path53"
         style="paint-order:normal"
         opacity="1"
         d="m15.869-16.73-1.6953 1.0605a9 9 0 0 1 1.3262 4.6699 9 9 0 0 1-1.3281 4.6699l1.6914 1.0566a11 11 0 0 0 1.6367-5.7266 11 11 0 0 0-1.6309-5.7305z" />
      <path
         id="path55"
         style="paint-order:normal"
         opacity="1"
         d="m18.41-18.318-1.6992 1.0625a12 12 0 0 1 1.7891 6.2559 12 12 0 0 1-1.7812 6.2617l1.6875 1.0547a14 14 0 0 0 2.0938-7.3164 14 14 0 0 0-2.0898-7.3184z" />
    </g>
    <rect
       id="rect59"
       style="paint-order:normal"
       opacity="1"
       fill="none"
       ry="0"
       height="22"
       width="22"
       y="-29" />
  </g>
</svg>
