<?xml version="1.0" encoding="UTF-8" standalone="no"?>
<svg
   xmlns:dc="http://purl.org/dc/elements/1.1/"
   xmlns:cc="http://creativecommons.org/ns#"
   xmlns:rdf="http://www.w3.org/1999/02/22-rdf-syntax-ns#"
   xmlns:svg="http://www.w3.org/2000/svg"
   xmlns="http://www.w3.org/2000/svg"
   xmlns:sodipodi="http://sodipodi.sourceforge.net/DTD/sodipodi-0.dtd"
   xmlns:inkscape="http://www.inkscape.org/namespaces/inkscape"
   id="svg7229"
   width="22"
   height="22"
   inkscape:version="0.92.5 (2060ec1f9f, 2020-04-08)"
   sodipodi:docname="battery.svg"
   version="1"
   viewBox="0 0 22 22">
  <metadata
     id="metadata121">
    <rdf:RDF>
      <cc:Work
         rdf:about="">
        <dc:format>image/svg+xml</dc:format>
        <dc:type
           rdf:resource="http://purl.org/dc/dcmitype/StillImage" />
      </cc:Work>
    </rdf:RDF>
  </metadata>
  <sodipodi:namedview
     id="namedview124"
     bordercolor="#666666"
     borderopacity="1"
     gridtolerance="10"
     guidetolerance="10"
     inkscape:bbox-nodes="true"
     inkscape:current-layer="svg7229"
     inkscape:cx="33.857233"
     inkscape:cy="-103.1025"
     inkscape:pageopacity="0"
     inkscape:pageshadow="2"
     inkscape:snap-bbox="true"
     inkscape:snap-nodes="true"
     inkscape:window-height="1080"
     inkscape:window-maximized="1"
     inkscape:window-width="1866"
     inkscape:window-x="54"
     inkscape:window-y="0"
     inkscape:zoom="5.6568542"
     objecttolerance="10"
     pagecolor="#323232"
     showgrid="true">
    <inkscape:grid
       id="grid931"
       type="xygrid" />
  </sodipodi:namedview>
  <defs
     id="defs8">
    <style
       id="current-color-scheme"
       type="text/css">.ColorScheme-Text { color:#dedede; } .ColorScheme-Highlight { color:#5294e2; } .ColorScheme-ButtonBackground { color:#5c616c; }</style>
  </defs>
  <g
     id="Unavailable"
     transform="translate(-96.41 -277.67)">
    <path
       id="rect4480"
       d="m118.54 428.5h32v32h-32z"
       inkscape:connector-curvature="0"
       fill="none" />
    <g
       id="g4580">
      <rect
         id="rect4577"
         x="128.53999"
         y="439.5"
         width="10"
         height="10"
         rx="5"
         ry="5"
         style="fill:#ffb86c" />
      <path
         id="rect4622-0"
         class="ColorScheme-Background"
         d="m136.36 442.38-0.70699-0.707-2.1213 2.1213-2.1213-2.1213-0.70711 0.70711 2.1214 2.1212-2.1214 2.1214 0.70711 0.70711 2.1213-2.1216 2.1213 2.1216 0.70711-0.70711-2.1214-2.1214z"
         inkscape:connector-curvature="0"
         fill="#fff"
         color="#eff0f1" />
    </g>
  </g>
  <g
     id="22-22-Fill100"
     transform="matrix(3.7795,0,0,3.7795,-215,-202.52)">
    <rect
       id="rect203"
       x="64.822998"
       y="53.583"
       width="5.8207998"
       height="5.8207998"
       style="opacity:0;stroke-width:0.17910001" />
    <g
       id="g211"
       style="fill:#e6e6e6">
      <path
         id="rect209"
         d="m 65.882,55.436 h 3.4396 c 0.14659,0 0.2646,0.11806 0.2646,0.26471 v 1.5873 c 0,0.14665 -0.11801,0.26471 -0.2646,0.26471 H 65.882 c -0.14659,0 -0.2646,-0.11806 -0.2646,-0.26471 v -1.5873 c 0,-0.14665 0.11801,-0.26471 0.2646,-0.26471 z"
         inkscape:connector-curvature="0"
         style="stroke-width:1.24039996" />
    </g>
  </g>
  <g
     id="22-22-Unavailable"
     transform="rotate(90,354.52,124.98)">
    <path
       id="rect4614"
       d="m258.54 426.5h22v22h-22z"
       inkscape:connector-curvature="0"
       fill="none" />
    <g
       id="g4631">
      <rect
         id="rect4577-9-1"
         x="265.54001"
         y="434.5"
         width="8"
         height="8"
         rx="4"
         ry="4"
         style="fill:#ffb86c" />
      <path
         id="rect4622"
         class="ColorScheme-Background"
         d="m271.66 437.09-0.70699-0.707-1.4143 1.4143-1.4143-1.4143-0.70699 0.707 1.4143 1.4143-1.4143 1.4141 0.70699 0.707 1.4143-1.4141 1.4142 1.4142 0.707-0.70699-1.4142-1.4142z"
         inkscape:connector-curvature="0"
         fill="currentColor"
         color="#eff0f1" />
    </g>
  </g>
  <g
     id="Battery"
     transform="translate(5.6221e-4)">
    <path
       id="rect1207"
       d="m 10,115 v 6 h 1 c 0.554,0 1,-0.446 1,-1 v -4 c 0,-0.554 -0.446,-1 -1,-1 z"
       inkscape:connector-curvature="0"
       style="fill:#dedede" />
    <path
       id="rect1200"
       d="m -13,111 c -1.108,0 -1.9999,0.892 -1.9999,2 v 10 c 0,1.108 0.89197,2 1.9999,2 H 6.999 c 1.108,0 1.9999,-0.892 1.9999,-2 v -10 c 0,-1.108 -0.89197,-2 -1.9999,-2 z m 0,1 H 6.999 c 0.55398,0 0.99997,0.446 0.99997,1 v 10 c 0,0.554 -0.44599,1 -0.99997,1 H -13 c -0.55398,0 -0.99997,-0.446 -0.99997,-1 v -10 c 0,-0.554 0.44599,-1 0.99997,-1 z"
       inkscape:connector-curvature="0"
       style="fill:#dedede;stroke-width:0.99997997" />
    <rect
       id="rect1184"
       x="-18"
       y="102"
       width="31.999001"
       height="32"
       style="opacity:0;stroke-width:0.98460001" />
  </g>
  <g
     id="Fill100"
     transform="translate(-3,-1)">
    <rect
       id="rect1222"
       x="31"
       y="102"
       width="31.999001"
       height="32"
       style="opacity:0;stroke-width:0.98460001" />
    <path
       id="rect1218"
       d="m 37,113 h 17.999 c 0.55398,0 0.99997,0.446 0.99997,1 v 8 c 0,0.554 -0.44599,1 -0.99997,1 H 37 c -0.55398,0 -0.99997,-0.446 -0.99997,-1 v -8 c 0,-0.554 0.44599,-1 0.99997,-1 z"
       inkscape:connector-curvature="0"
       style="fill:#dedede" />
  </g>
  <g
     id="22-22-Battery">
    <rect
       id="rect60"
       x="-.0014789"
       y="-.0030508"
       width="22"
       height="22"
       stroke-width=".67691"
       opacity="0" />
    <path
       id="path62"
       d="m2.998 4.998c-1.108-1.13e-5 -2 0.892-2 2v8c0 1.108 0.892 2 2 2h15c1.108 1.1e-5 2-0.892 2-2v-8c0-1.108-0.892-2-2-2zm0.0019531 1.002h15c0.554 0 1 0.446 1 1v8c0 0.554-0.446 1-1 1h-15c-0.554 0-1-0.446-1-1v-8c0-0.554 0.446-1 1-1z"
       inkscape:connector-curvature="0"
       stroke-width="3.7795"
       fill="#e6e6e6" />
    <path
       id="rect1009"
       d="m21.5 9c0.277 0 0.5 0.14867 0.5 0.33333v3.3333c0 0.18467-0.223 0.33333-0.5 0.33333s-0.5-0.14867-0.5-0.33333v-3.3333c0-0.18467 0.223-0.33333 0.5-0.33333z"
       inkscape:connector-curvature="0"
       stroke-width=".8165"
       fill="#e6e6e6" />
  </g>
  <g
     id="22-22-Fill90"
     transform="matrix(3.7795 0 0 3.7795 -180 -202.52)">
    <rect
       id="rect1079"
       x="64.823"
       y="53.583"
       width="5.8208"
       height="5.8208"
       stroke-width=".1791"
       opacity="0" />
    <g
       id="g1083"
       fill="#e6e6e6">
      <path
         id="path1081"
         d="m65.882 55.436h3.175v2.1167h-3.175c-0.14659 0-0.2646-0.11806-0.2646-0.26471v-1.5873c0-0.14665 0.11801-0.26471 0.2646-0.26471z"
         inkscape:connector-curvature="0"
         sodipodi:nodetypes="sccssss"
         stroke-width="1.2404" />
    </g>
  </g>
  <g
     id="22-22-Fill80"
     transform="matrix(3.7795 0 0 3.7795 -150 -202.52)">
    <rect
       id="rect1087"
       x="64.823"
       y="53.583"
       width="5.8208"
       height="5.8208"
       stroke-width=".1791"
       opacity="0" />
    <g
       id="g1091"
       fill="#e6e6e6">
      <path
         id="path1089"
         d="m65.882 55.436h2.6459l0.26459 2.1167h-2.9104c-0.14659 0-0.2646-0.11806-0.2646-0.26471v-1.5873c0-0.14665 0.11801-0.26471 0.2646-0.26471z"
         inkscape:connector-curvature="0"
         sodipodi:nodetypes="sccssss"
         stroke-width="1.2404" />
    </g>
  </g>
  <g
     id="22-22-Fill70"
     transform="matrix(3.7795 0 0 3.7795 -120 -202.52)">
    <rect
       id="rect1095"
       x="64.823"
       y="53.583"
       width="5.8208"
       height="5.8208"
       stroke-width=".1791"
       opacity="0" />
    <g
       id="g1099"
       fill="#e6e6e6">
      <path
         id="path1097"
         d="m65.882 55.436h2.3813v2.1167l-2.3813-1e-6c-0.14659 0-0.2646-0.11806-0.2646-0.26471v-1.5873c0-0.14665 0.11801-0.26471 0.2646-0.26471z"
         inkscape:connector-curvature="0"
         sodipodi:nodetypes="sccssss"
         stroke-width="1.2404" />
    </g>
  </g>
  <g
     id="22-22-Fill60"
     transform="matrix(3.7795 0 0 3.7795 -89.999 -202.52)">
    <rect
       id="rect1103"
       x="64.823"
       y="53.583"
       width="5.8208"
       height="5.8208"
       stroke-width=".1791"
       opacity="0" />
    <g
       id="g1107"
       fill="#e6e6e6">
      <path
         id="path1105"
         d="m65.881 55.436h1.8513l0.26534 2.1167h-2.1167c-0.14659 0-0.2646-0.11806-0.2646-0.26471v-1.5873c0-0.14665 0.11801-0.26471 0.2646-0.26471z"
         inkscape:connector-curvature="0"
         sodipodi:nodetypes="sccssss"
         stroke-width="1.2404" />
    </g>
  </g>
  <g
     id="22-22-Fill50"
     transform="matrix(3.7795 0 0 3.7795 -54 -202.52)">
    <rect
       id="rect1111"
       x="64.823"
       y="53.583"
       width="5.8208"
       height="5.8208"
       stroke-width=".1791"
       opacity="0" />
    <g
       id="g1115"
       fill="#e6e6e6">
      <path
         id="path1113"
         d="m65.882 55.436h1.5875v2.1167h-1.5875c-0.14659 0-0.2646-0.11806-0.2646-0.26471v-1.5873c0-0.14665 0.11801-0.26471 0.2646-0.26471z"
         inkscape:connector-curvature="0"
         sodipodi:nodetypes="sccssss"
         stroke-width="1.2404" />
    </g>
  </g>
  <g
     id="22-22-Fill40"
     transform="matrix(3.7795 0 0 3.7795 -24.999 -202.52)">
    <rect
       id="rect1119"
       x="64.823"
       y="53.583"
       width="5.8208"
       height="5.8208"
       stroke-width=".1791"
       opacity="0" />
    <g
       id="g1123"
       fill="#e6e6e6">
      <path
         id="path1121"
         d="m65.882 55.436 1.0575-0.0016 0.26497 2.1175-1.3225 8.07e-4c-0.14659 8.9e-5 -0.2646-0.11806-0.2646-0.26471v-1.5873c0-0.14665 0.11801-0.26471 0.2646-0.26471z"
         inkscape:connector-curvature="0"
         sodipodi:nodetypes="sccssss"
         stroke-width="1.2404" />
    </g>
  </g>
  <g
     id="22-22-Fill30"
     transform="matrix(3.7795 0 0 3.7795 5.9999 -202.52)">
    <rect
       id="rect1127"
       x="64.823"
       y="53.583"
       width="5.8208"
       height="5.8208"
       stroke-width=".1791"
       opacity="0" />
    <g
       id="g1131"
       fill="#e6e6e6">
      <path
         id="path1129"
         d="m65.882 55.436 0.79376-8.07e-4 7.97e-4 2.1175-0.79455 2.6e-5c-0.14659 5e-6 -0.2646-0.11806-0.2646-0.26471v-1.5873c0-0.14665 0.11801-0.26471 0.2646-0.26471z"
         inkscape:connector-curvature="0"
         sodipodi:nodetypes="cccssssc"
         stroke-width="1.2404" />
    </g>
  </g>
  <g
     id="22-22-Fill20"
     transform="matrix(3.7795 0 0 3.7795 37.997 -202.52)">
    <rect
       id="rect1135"
       x="64.823"
       y="53.583"
       width="5.8208"
       height="5.8208"
       stroke-width=".1791"
       opacity="0" />
    <g
       id="g1139"
       fill="#e6e6e6">
      <path
         id="path1137"
         d="m 65.882,55.436 0.26538,-8.07e-4 0.26458,2.1175 -0.52997,2.6e-5 c -0.14659,7e-6 -0.2646,-0.11806 -0.2646,-0.26471 v -1.5873 c 0,-0.14665 0.11801,-0.26471 0.2646,-0.26471 z"
         inkscape:connector-curvature="0"
         sodipodi:nodetypes="cccssssc"
         style="fill:#ffb86c;stroke-width:1.24039996" />
    </g>
  </g>
  <g
     id="22-22-Fill10"
     transform="matrix(3.7795 0 0 3.7795 69.997 -202.52)">
    <rect
       id="rect1143"
       x="64.823"
       y="53.583"
       width="5.8208"
       height="5.8208"
       stroke-width=".1791"
       opacity="0" />
    <g
       id="g1147"
       style="fill:#ffb86c">
      <path
         id="path1145"
         d="m 65.882,55.436 v 2.1167 c -0.14659,4.53e-4 -0.2646,-0.11806 -0.2646,-0.26471 v -1.5873 c 0,-0.14665 0.11801,-0.26471 0.2646,-0.26471 z"
         inkscape:connector-curvature="0"
         sodipodi:nodetypes="ccsssc"
         style="fill:#ffb86c;stroke-width:1.24039996" />
    </g>
  </g>
  <g
     id="22-22-Fill0"
     transform="translate(344 -.99971)">
    <rect
       id="rect1151"
       x="-.0014789"
       y="-.0030508"
       width="22"
       height="22"
       stroke-width=".67691"
       opacity="0" />
    <path
       id="path1153"
       d="m 2.998,4.998 c -1.108,-1.13e-5 -2,0.892 -2,2 v 8 c 0,1.108 0.892,2 2,2 h 15 c 1.108,1.1e-5 2,-0.892 2,-2 v -8 c 0,-1.108 -0.892,-2 -2,-2 z M 2.9999531,6 H 17.999953 c 0.554,0 1,0.446 1,1 v 8 c 0,0.554 -0.446,1 -1,1 H 2.9999531 c -0.554,0 -1,-0.446 -1,-1 V 7 c 0,-0.554 0.446,-1 1,-1 z"
       inkscape:connector-curvature="0"
       style="fill:#d95252;stroke-width:3.77950001" />
    <path
       id="path1155"
       d="m 21.5,8.9997 c 0.277,0 0.5,0.14869 0.5,0.33338 v 3.3338 c 0,0.18469 -0.223,0.33338 -0.5,0.33338 -0.277,0 -0.5,-0.14869 -0.5,-0.33338 V 9.33308 C 21,9.14839 21.223,8.9997 21.5,8.9997 Z"
       inkscape:connector-curvature="0"
       style="fill:#ffb86c;stroke-width:0.81655997" />
  </g>
  <g
     id="22-22-battery-ups"
     transform="translate(-34)">
    <rect
       id="rect1159"
       x="99"
       y="29"
       width="22"
       height="22"
       style="opacity:0;stroke-width:0.67690998" />
    <path
       id="path1161"
       d="m 102,34.001 c -1.108,-1.1e-5 -2,0.892 -2,2 v 8 c 0,1.108 0.892,2 2,2 h 15 c 1.108,1.1e-5 2,-0.892 2,-2 v -8 c 0,-1.108 -0.89201,-2 -2,-2 z m 0.002,1.002 h 15 c 0.554,0 1,0.446 1,1 v 8 c 0,0.554 -0.446,1 -1,1 h -15 c -0.554,0 -1,-0.446 -1,-1 v -8 c 0,-0.554 0.446,-1 1,-1 z"
       inkscape:connector-curvature="0"
       style="fill:#8be9fd;stroke-width:3.77950001" />
    <path
       id="path1163"
       d="m 120.5,38 c 0.277,0 0.5,0.14889 0.5,0.33383 v 3.3383 c 0,0.18494 -0.223,0.33383 -0.5,0.33383 -0.277,0 -0.5,-0.14889 -0.5,-0.33383 v -3.3383 C 120,38.14889 120.223,38 120.5,38 Z"
       inkscape:connector-curvature="0"
       style="fill:#8be9fd;stroke-width:0.81711" />
    <g
       id="g1171"
       transform="matrix(3.7795,0,0,3.7795,-146,-173.52)"
       style="fill:#e6e6e6">
      <path
         id="path1169"
         transform="matrix(0.26459,0,0,0.26459,38.629,45.911)"
         d="m 103,36 c -0.55404,0 -1,0.44575 -1,1 v 6 c 0,0.55426 0.44596,1 1,1 h 13 c 0.55404,0 1,-0.44574 1,-1 v -6 c 0,-0.55425 -0.44596,-1 -1,-1 z m 8,1 v 1 h 2 v 1 h -2 v 2 h 2 v 1 h -2 v 1 a 3,3 0 0 1 -2.8242,-2 H 107 v -2 h 1.1738 A 3,3 0 0 1 111,37 Z"
         inkscape:connector-curvature="0"
         style="fill:#8be9fd;stroke-width:4.68790007" />
    </g>
  </g>
  <g
     id="Fill90"
     transform="translate(46.999 -1)">
    <rect
       id="rect1239"
       x="31"
       y="102"
       width="31.999"
       height="32"
       stroke-width=".9846"
       opacity="0" />
    <path
       id="path1241"
       d="m37.001 113h16.999v10h-16.999c-0.55398 0-0.99997-0.446-0.99997-1v-8c0-0.554 0.44599-1 0.99997-1z"
       inkscape:connector-curvature="0"
       sodipodi:nodetypes="sccssss"
       fill="#dedede" />
  </g>
  <g
     id="Fill80"
     transform="translate(86.999 -1)">
    <rect
       id="rect1245"
       x="31"
       y="102"
       width="31.999"
       height="32"
       stroke-width=".9846"
       opacity="0" />
    <path
       id="path1247"
       d="m37.001 113h14l0.99994 10h-15c-0.55397 0-0.99994-0.446-0.99994-1v-8c0-0.554 0.44597-1 0.99994-1z"
       inkscape:connector-curvature="0"
       sodipodi:nodetypes="sccssss"
       fill="#dedede" />
  </g>
  <g
     id="Fill70"
     transform="translate(127 -1)">
    <rect
       id="rect1251"
       x="31"
       y="102"
       width="31.999"
       height="32"
       stroke-width=".9846"
       opacity="0" />
    <path
       id="path1253"
       d="m37 113h13l-5e-4 10h-13c-0.554 0-1-0.446-1-1v-8c0-0.554 0.446-1 1-1z"
       inkscape:connector-curvature="0"
       sodipodi:nodetypes="sccssss"
       fill="#dedede" />
  </g>
  <g
     id="Fill60"
     transform="translate(169 -1)">
    <rect
       id="rect1257"
       x="31"
       y="102"
       width="31.999"
       height="32"
       stroke-width=".9846"
       opacity="0" />
    <path
       id="path1259"
       d="m37 113h10l0.99994 10h-11c-0.55397 0-0.99994-0.446-0.99994-1v-8c0-0.554 0.44597-1 0.99994-1z"
       inkscape:connector-curvature="0"
       sodipodi:nodetypes="sccssss"
       fill="#dedede" />
  </g>
  <g
     id="Fill50"
     transform="translate(208 -1)">
    <rect
       id="rect1264"
       x="31"
       y="102"
       width="31.999"
       height="32"
       stroke-width=".9846"
       opacity="0" />
    <path
       id="path1266"
       d="m37 113h8.9997l-5e-4 10h-8.9992c-0.554 0-1-0.446-1-1v-8c0-0.554 0.446-1 1-1z"
       inkscape:connector-curvature="0"
       sodipodi:nodetypes="sccssss"
       fill="#dedede" />
  </g>
  <g
     id="Fill40"
     transform="translate(244 -1)">
    <rect
       id="rect1270"
       x="31"
       y="102"
       width="31.999"
       height="32"
       stroke-width=".9846"
       opacity="0" />
    <path
       id="path1272"
       d="m37 113h5.9998l0.99994 10h-6.9997c-0.55397 0-0.99994-0.446-0.99994-1v-8c0-0.554 0.44597-1 0.99994-1z"
       inkscape:connector-curvature="0"
       sodipodi:nodetypes="sccssss"
       fill="#dedede" />
  </g>
  <g
     id="Fill30"
     transform="translate(283 -1)">
    <rect
       id="rect1282"
       x="31"
       y="102"
       width="31.999"
       height="32"
       stroke-width=".9846"
       opacity="0" />
    <path
       id="path1284"
       d="m37 113h4.9998l-5e-4 10h-4.9993c-0.554 0-1-0.446-1-1v-8c0-0.554 0.446-1 1-1z"
       inkscape:connector-curvature="0"
       sodipodi:nodetypes="sccssss"
       fill="#dedede" />
  </g>
  <g
     id="Fill20"
     transform="translate(320 -1)">
    <rect
       id="rect1288"
       x="31"
       y="102"
       width="31.999"
       height="32"
       stroke-width=".9846"
       opacity="0" />
    <path
       id="path1290"
       d="m 37,113 h 1.9999 l 0.99994,10 h -2.9998 c -0.55397,0 -0.99994,-0.446 -0.99994,-1 v -8 c 0,-0.554 0.44597,-1 0.99994,-1 z"
       inkscape:connector-curvature="0"
       sodipodi:nodetypes="sccssss"
       style="fill:#ffb86c" />
  </g>
  <g
     id="Fill10"
     transform="translate(356 -1)">
    <rect
       id="rect1300"
       x="31"
       y="102"
       width="31.999"
       height="32"
       stroke-width=".9846"
       opacity="0" />
    <path
       id="path1302"
       d="m 37,113 h 0.99947 l -5e-4,10 H 37 c -0.554,0 -1,-0.446 -1,-1 v -8 c 0,-0.554 0.446,-1 1,-1 z"
       inkscape:connector-curvature="0"
       sodipodi:nodetypes="sccssss"
       style="fill:#ffb86c" />
  </g>
  <g
     id="Fill0"
     transform="translate(445 -3)">
    <path
       id="path1306"
       d="m 10,115 v 6 h 1 c 0.554,0 1,-0.446 1,-1 v -4 c 0,-0.554 -0.446,-1 -1,-1 z"
       inkscape:connector-curvature="0"
       style="fill:#ffb86c" />
    <path
       id="path1308"
       d="m -13,111 c -1.108,0 -1.9999,0.892 -1.9999,2 v 10 c 0,1.108 0.89197,2 1.9999,2 H 6.999 c 1.108,0 1.9999,-0.892 1.9999,-2 v -10 c 0,-1.108 -0.89197,-2 -1.9999,-2 z m 0,1 H 6.999 c 0.55398,0 0.99997,0.446 0.99997,1 v 10 c 0,0.554 -0.44599,1 -0.99997,1 H -13 c -0.55398,0 -0.99997,-0.446 -0.99997,-1 v -10 c 0,-0.554 0.44599,-1 0.99997,-1 z"
       inkscape:connector-curvature="0"
       style="fill:#ffb86c;stroke-width:0.99997997" />
    <rect
       id="rect1310"
       x="-18"
       y="102"
       width="31.999"
       height="32"
       stroke-width=".9846"
       opacity="0" />
  </g>
  <g
     id="battery-ups"
     transform="translate(1,4)">
    <path
       id="path1314"
       d="m 139,161 v 6 h 1 c 0.55402,0 1,-0.446 1,-1 v -4 c 0,-0.554 -0.44601,-1 -1,-1 z"
       inkscape:connector-curvature="0"
       style="fill:#8be9fd" />
    <path
       id="path1316"
       d="m 116,157 c -1.108,0 -2,0.892 -2,2 v 10 c 0,1.108 0.892,2 2,2 h 20 c 1.108,0 2,-0.892 2,-2 v -10 c 0,-1.108 -0.892,-2 -2,-2 z m 0,1 h 20 c 0.554,0 1,0.446 1,1 v 10 c 0,0.554 -0.446,1 -1,1 h -20 c -0.554,0 -1,-0.446 -1,-1 v -10 c 0,-0.554 0.446,-1 1,-1 z"
       inkscape:connector-curvature="0"
       style="fill:#8be9fd" />
    <rect
       id="rect1318"
       x="111"
       y="148"
       width="32"
       height="32"
       style="opacity:0;stroke-width:0.98461998" />
    <path
       id="path1327"
       d="m 117,159 c -0.554,0 -1,0.446 -1,1 v 8 c 0,0.554 0.446,1 1,1 h 18 c 0.554,0 1,-0.446 1,-1 v -8 c 0,-0.554 -0.446,-1 -1,-1 z m 10,2 v 1 h 2 v 1 h -2 v 2 h 2 v 1 h -2 v 1 a 3,3 0 0 1 -2.8242,-2 H 123 v -2 h 1.1738 A 3,3 0 0 1 127,161 Z"
       inkscape:connector-curvature="0"
       style="fill:#8be9fd" />
  </g>
  <g
     transform="translate(-100.5,4)"
     id="22-22-AcAdapter">
    <rect
       style="opacity:0;stroke-width:0.67690998"
       height="22"
       width="22"
       y="28.998974"
       x="98.498863"
       id="rect938" />
    <path
       style="fill:#8be9fd;stroke-width:3.77950001"
       inkscape:connector-curvature="0"
       d="m 102,34.001 c -1.108,-1.1e-5 -2,0.892 -2,2 v 8 c 0,1.108 0.892,2 2,2 h 15 c 1.108,1.1e-5 2,-0.892 2,-2 v -8 c 0,-1.108 -0.89201,-2 -2,-2 z m 0.002,1.002 h 15 c 0.554,0 1,0.446 1,1 v 8 c 0,0.554 -0.446,1 -1,1 h -15 c -0.554,0 -1,-0.446 -1,-1 v -8 c 0,-0.554 0.446,-1 1,-1 z"
       id="path940" />
    <g
       transform="matrix(3.7795,0,0,3.7795,-146.49952,-173.51783)"
       id="g143"
       inkscape:label="g143">
      <g
         style="opacity:0.33000004;fill:#8be9fd;fill-opacity:1"
         id="g141"
         transform="translate(0.13159945,-9.6038459e-4)">
        <path
           style="fill:#8be9fd;fill-opacity:1;stroke-width:1.24039996"
           inkscape:connector-curvature="0"
           d="m 65.882,55.436 h 3.4396 c 0.14659,0 0.2646,0.11806 0.2646,0.26471 v 1.5873 c 0,0.14665 -0.11801,0.26471 -0.2646,0.26471 H 65.882 c -0.14659,0 -0.2646,-0.11806 -0.2646,-0.26471 v -1.5873 c 0,-0.14665 0.11801,-0.26471 0.2646,-0.26471 z"
           id="path139" />
      </g>
    </g>
    <path
       style="fill:#8be9fd;stroke-width:0.81711"
       inkscape:connector-curvature="0"
       d="m 120.5,38 c 0.277,0 0.5,0.14889 0.5,0.33383 v 3.3383 c 0,0.18494 -0.223,0.33383 -0.5,0.33383 -0.277,0 -0.5,-0.14889 -0.5,-0.33383 v -3.3383 C 120,38.14889 120.223,38 120.5,38 Z"
       id="path942" />
  </g>
  <g
     transform="translate(-129,6)"
     id="AcAdapter">
    <path
       style="fill:#8be9fd"
       inkscape:connector-curvature="0"
       d="m 139,161 v 6 h 1 c 0.55402,0 1,-0.446 1,-1 v -4 c 0,-0.554 -0.44601,-1 -1,-1 z"
       id="path952" />
    <path
       style="fill:#8be9fd"
       inkscape:connector-curvature="0"
       d="m 116,157 c -1.108,0 -2,0.892 -2,2 v 10 c 0,1.108 0.892,2 2,2 h 20 c 1.108,0 2,-0.892 2,-2 v -10 c 0,-1.108 -0.892,-2 -2,-2 z m 0,1 h 20 c 0.554,0 1,0.446 1,1 v 10 c 0,0.554 -0.446,1 -1,1 h -20 c -0.554,0 -1,-0.446 -1,-1 v -10 c 0,-0.554 0.446,-1 1,-1 z"
       id="path954" />
    <path
       style="opacity:0.33000004;fill:#8be9fd;fill-opacity:1"
       inkscape:connector-curvature="0"
       d="m 117.0005,159 h 17.999 c 0.55398,0 0.99997,0.446 0.99997,1 v 8 c 0,0.554 -0.44599,1 -0.99997,1 h -17.999 c -0.55398,0 -0.99997,-0.446 -0.99997,-1 v -8 c 0,-0.554 0.44599,-1 0.99997,-1 z"
       id="path956" />
    <rect
       style="opacity:0;stroke-width:0.98461998"
       height="32"
       width="32"
       y="148"
       x="111"
       id="rect956" />
  </g>
</svg>
