<?xml version="1.0" encoding="UTF-8" standalone="no"?>
<svg
   xmlns:dc="http://purl.org/dc/elements/1.1/"
   xmlns:cc="http://creativecommons.org/ns#"
   xmlns:rdf="http://www.w3.org/1999/02/22-rdf-syntax-ns#"
   xmlns:svg="http://www.w3.org/2000/svg"
   xmlns="http://www.w3.org/2000/svg"
   xmlns:sodipodi="http://sodipodi.sourceforge.net/DTD/sodipodi-0.dtd"
   xmlns:inkscape="http://www.inkscape.org/namespaces/inkscape"
   width="22"
   height="22"
   version="1.1"
   id="svg15"
   sodipodi:docname="start.svg"
   inkscape:version="0.92.5 (2060ec1f9f, 2020-04-08)">
  <metadata
     id="metadata19">
    <rdf:RDF>
      <cc:Work
         rdf:about="">
        <dc:format>image/svg+xml</dc:format>
        <dc:type
           rdf:resource="http://purl.org/dc/dcmitype/StillImage" />
      </cc:Work>
    </rdf:RDF>
  </metadata>
  <sodipodi:namedview
     pagecolor="#ffffff"
     bordercolor="#666666"
     borderopacity="1"
     objecttolerance="10"
     gridtolerance="10"
     guidetolerance="10"
     inkscape:pageopacity="0"
     inkscape:pageshadow="2"
     inkscape:window-width="1866"
     inkscape:window-height="1080"
     id="namedview17"
     showgrid="false"
     inkscape:zoom="10.727273"
     inkscape:cx="25.958238"
     inkscape:cy="-6.3314354"
     inkscape:window-x="54"
     inkscape:window-y="0"
     inkscape:window-maximized="1"
     inkscape:current-layer="22-22-start-here-kde" />
  <defs
     id="defs3">
    <style
       id="current-color-scheme"
       type="text/css">.ColorScheme-Text { color:#dedede; } .ColorScheme-Highlight { color:#5294e2; } .ColorScheme-ButtonBackground { color:#dedede; }</style>
  </defs>
  <g
     id="22-22-start-here-kde">
    <rect
       width="22"
       height="22"
       id="rect5"
       x="-1.9999999e-05"
       y="0"
       style="opacity:0.00100002" />
    <g
       transform="matrix(0.03422056,0,0,0.03422056,2.2395366,2.2395366)"
       id="g257">
      <path
         style="fill:#f74b4b"
         inkscape:connector-curvature="0"
         d="M 512,256 C 512,397.38672 397.38672,512 256,512 114.61328,512 0,397.38672 0,256 0,114.61328 114.61328,0 256,0 397.38672,0 512,114.61328 512,256 Z m 0,0"
         id="path215" />
      <g
         style="fill:#fc7070"
         id="g225">
        <path
           inkscape:connector-curvature="0"
           d="M 156.74219,250.67969 H 0.0664062 C 0.03125,252.44922 0,254.22266 0,256 c 0,23.30859 3.132812,45.88281 8.972656,67.34375 h 39.785156 c 10.035157,0 18.167969,-8.13281 18.167969,-18.16406 0,-10.03516 8.132813,-18.16797 18.167969,-18.16797 h 71.65234 c 10.03125,0 18.16407,-8.13281 18.16407,-18.16797 0,-10.03125 -8.13282,-18.16406 -18.16797,-18.16406 z m 0,0"
           id="path217" />
        <path
           inkscape:connector-curvature="0"
           d="m 177.66797,175.39844 c 0,-10.03125 8.13281,-18.16797 18.16797,-18.16797 H 385.5 c 10.03125,0 18.16797,8.13281 18.16797,18.16797 0,10.03515 8.13281,18.16797 18.16797,18.16797 h 45 c 10.03125,0 18.16406,8.13281 18.16406,18.16796 0,10.03125 -8.13281,18.16407 -18.16406,18.16407 h -12.82422 c -10.03516,0 -18.16797,8.13281 -18.16797,18.16797 0,10.03515 -8.13281,18.16796 -18.16797,18.16796 H 237.60156 c -10.03125,0 -18.16406,-8.13281 -18.16406,-18.16796 0,-10.03125 8.13281,-18.16797 18.16406,-18.16797 h 12.82422 c 10.03516,0 18.16797,-8.13282 18.16797,-18.16407 0,-10.03515 -8.13281,-18.16796 -18.16797,-18.16796 h -54.59375 c -10.03125,0 -18.16406,-8.13282 -18.16406,-18.16797 z m 0,0"
           id="path219" />
        <path
           inkscape:connector-curvature="0"
           d="M 301.96875,152.26172 H 274.16797 C 264.13281,152.26172 256,144.12891 256,134.09766 256,124.0625 247.86719,115.92969 237.83203,115.92969 H 41.707031 c -7.535156,11.5 -14.167969,23.64453 -19.800781,36.33203 h 24.0625 c 10.03125,0 18.167969,8.13281 18.167969,18.16797 0,10.03125 8.132812,18.16797 18.164062,18.16797 H 301.96875 c 10.03516,0 18.16797,-8.13282 18.16797,-18.16797 0,-10.03516 -8.13672,-18.16797 -18.16797,-18.16797 z m 0,0"
           id="path221" />
        <path
           inkscape:connector-curvature="0"
           d="m 510.66797,282.25391 h -34.20313 c -10.03125,0 -18.16406,8.13281 -18.16406,18.16796 0,10.03125 -8.13672,18.16797 -18.16797,18.16797 h -17.80078 c -10.03516,0 -18.16797,8.13282 -18.16797,18.16407 0,10.03515 8.13282,18.16796 18.16797,18.16796 h 69.84766 c 9.53515,-22.74218 15.89062,-47.14843 18.48828,-72.66796 z m 0,0"
           id="path223" />
      </g>
      <path
         style="fill:#c1ccd0"
         inkscape:connector-curvature="0"
         d="M 204.52344,248.30469 H 307.47656 V 389 H 204.52344 Z m 0,0"
         id="path227" />
      <path
         style="fill:#e2e6e7"
         inkscape:connector-curvature="0"
         d="m 430.41406,200.97656 c 0,24.15625 -19.58594,43.74219 -43.74609,43.74219 -24.15625,0 -43.74219,-19.58594 -43.74219,-43.74219 0,-24.16015 19.58594,-43.74609 43.74219,-43.74609 24.16015,0 43.74609,19.58594 43.74609,43.74609 z m 0,0"
         id="path229" />
      <path
         style="fill:#c1ccd0"
         inkscape:connector-curvature="0"
         d="m 169.07422,200.97656 c 0,24.15625 -19.58594,43.74219 -43.74219,43.74219 -24.16015,0 -43.746092,-19.58594 -43.746092,-43.74219 0,-24.16015 19.585942,-43.74609 43.746092,-43.74609 24.15625,0 43.74219,19.58594 43.74219,43.74609 z m 0,0"
         id="path231" />
      <path
         style="fill:#fbfcf7"
         inkscape:connector-curvature="0"
         d="m 256,352.94922 c -72.16797,0 -130.66797,-58.50391 -130.66797,-130.66797 v -74.28906 c 0,-72.167971 58.50391,-130.667971 130.66797,-130.667971 72.16797,0 130.66797,58.503906 130.66797,130.667971 v 74.28906 c 0,72.16406 -58.5,130.66797 -130.66797,130.66797 z m 0,0"
         id="path233" />
      <path
         style="fill:#e2e6e7"
         inkscape:connector-curvature="0"
         d="M 155.33203,222.28125 V 147.99219 C 155.33203,80.898438 205.89844,25.628906 271,18.1875 c -4.92188,-0.566406 -9.92578,-0.863281 -15,-0.863281 -72.16797,0 -130.66797,58.5 -130.66797,130.667971 v 74.28906 c 0,72.16797 58.50391,130.66797 130.66797,130.66797 5.07422,0 10.07812,-0.29688 15,-0.85938 C 205.89844,344.64453 155.33203,289.375 155.33203,222.28125 Z m 0,0"
         id="path235" />
      <path
         style="fill:#3e4852"
         inkscape:connector-curvature="0"
         d="m 256,284.00781 c 30.57812,0 55.64844,-23.58203 58.02344,-53.55078 0.19922,-2.51953 -1.85547,-4.65625 -4.38672,-4.65625 H 202.36328 c -2.53125,0 -4.58594,2.13672 -4.38672,4.65625 2.375,29.96875 27.44531,53.55078 58.02344,53.55078 z m 0,0"
         id="path237" />
      <path
         style="fill:#fd6e99"
         inkscape:connector-curvature="0"
         d="M 293.86719,269.99609 C 283.90625,260.82422 270.60937,255.21875 256,255.21875 c -14.60938,0 -27.90625,5.60547 -37.86719,14.77734 10.17969,8.73047 23.40235,14.01172 37.86719,14.01172 14.46484,0 27.6875,-5.28125 37.86719,-14.01172 z m 0,0"
         id="path239" />
      <path
         style="fill:#3e4852"
         inkscape:connector-curvature="0"
         d="m 375.90625,367.3125 c -3.08203,-0.21875 -5.15625,-3.25 -4.20313,-6.19141 l 24.41797,-75.30859 c 0.95313,-2.93359 -1.23437,-5.94531 -4.32031,-5.94531 h -22.29297 c -34.25781,0 -62.03125,27.77343 -62.03125,62.03515 v 25.19141 H 204.52344 v -25.19141 c 0,-34.26172 -27.77344,-62.03515 -62.03125,-62.03515 h -22.29297 c -3.08594,0 -5.27344,3.01172 -4.32031,5.94531 l 24.41796,75.30859 c 0.95313,2.94141 -1.12109,5.97266 -4.20312,6.19141 -33.90625,2.41797 -62.65625,24.69922 -74.0625,55.75781 C 108.98047,477.52344 178.46094,512 256,512 333.53906,512 403.01953,477.52344 449.96875,423.06641 438.5625,392.01172 409.8125,369.73047 375.90625,367.3125 Z m 0,0"
         id="path241" />
      <path
         style="fill:#e2e6e7"
         inkscape:connector-curvature="0"
         d="m 256,491.02344 c -28.42969,0 -51.47656,-23.04688 -51.47656,-51.47657 v -72.45312 h 102.95312 v 72.45312 c 0,28.42969 -23.04687,51.47657 -51.47656,51.47657 z m 0,0"
         id="path243" />
      <path
         style="fill:#fbfcf7"
         inkscape:connector-curvature="0"
         d="m 256,367.09375 h 51.47656 L 256,449.92578 Z m 0,0"
         id="path245" />
      <path
         style="fill:#bff8ff"
         inkscape:connector-curvature="0"
         d="m 290.05469,249.85937 12.43359,-23.98046 -0.0781,-0.0781 h -24.90625 z m 0,0"
         id="path247" />
      <path
         style="fill:#bff8ff"
         inkscape:connector-curvature="0"
         d="m 222.05859,249.85937 12.4375,-23.98046 -0.0781,-0.0781 h -24.90625 z m 0,0"
         id="path249" />
      <path
         style="fill:#3e4852"
         inkscape:connector-curvature="0"
         d="M 256,0 C 174.39844,0 108.00781,66.390625 108.00781,147.99219 v 12.80859 c 5.3125,-2.29297 11.16797,-3.57031 17.32032,-3.57031 v 27.90625 h 0.004 c 10.28906,0 18.62891,-8.33985 18.62891,-18.62891 v -17.91797 c 0,-30.9414 25.07812,-56.019528 56.01953,-56.019528 30.9375,0 45.82031,56.019528 56.01953,56.019528 10.19922,0 25.08203,-56.019528 56.01953,-56.019528 30.94141,0 56.01953,25.078128 56.01953,56.019528 v 17.91797 c 0,10.28906 8.33985,18.62891 18.62891,18.62891 h 0.004 v -27.90625 c 6.15234,0 12.00781,1.27734 17.32031,3.57031 V 147.99219 C 403.99219,66.390625 337.60156,0 256,0 Z m 0,0"
         id="path251" />
      <path
         style="fill:#2e3b43"
         inkscape:connector-curvature="0"
         d="M 143.9375,147.99219 C 143.9375,69.882812 205.74219,5.9375 283.01562,2.480469 274.25391,0.855469 265.22656,0 256,0 174.39844,0 108.00781,66.390625 108.00781,147.99219 v 12.80859 c 5.3125,-2.29297 11.16797,-3.57031 17.32032,-3.57031 v 27.90625 h 0.004 c 10.13672,0 18.36719,-8.10547 18.60547,-18.1875 z m 0,0"
         id="path253" />
      <path
         style="fill:#2e3b43"
         inkscape:connector-curvature="0"
         d="m 136.09375,367.3125 c -33.90625,2.41797 -62.65625,24.69922 -74.0625,55.75391 17.449219,20.23828 38.01172,37.71093 60.94141,51.68359 1.33593,-57.92578 29.78125,-86.0625 41.3125,-95.12109 2.82421,-2.22266 3.9375,-5.98828 2.82031,-9.40625 l -29.5625,-90.35547 h -17.34375 c -3.08594,0 -5.27344,3.01172 -4.32031,5.94531 l 24.41796,75.30859 c 0.95313,2.94141 -1.12109,5.97266 -4.20312,6.19141 z m 0,0"
         id="path255" />
    </g>
  </g>
  <g
     id="start-here-kde"
     transform="matrix(1.4545,0,0,1.4545,30.455,-5.5254)">
    <rect
       width="22"
       height="22"
       id="rect10"
       x="0"
       y="0"
       style="opacity:0.00100002" />
    <g
       id="g881"
       transform="matrix(0.03422056,0,0,0.03422056,2.2395366,2.2395366)">
      <path
         id="path2"
         d="M 512,256 C 512,397.38672 397.38672,512 256,512 114.61328,512 0,397.38672 0,256 0,114.61328 114.61328,0 256,0 397.38672,0 512,114.61328 512,256 Z m 0,0"
         inkscape:connector-curvature="0"
         style="fill:#f74b4b" />
      <g
         id="g12"
         style="fill:#fc7070">
        <path
           id="path4"
           d="M 156.74219,250.67969 H 0.0664062 C 0.03125,252.44922 0,254.22266 0,256 c 0,23.30859 3.132812,45.88281 8.972656,67.34375 h 39.785156 c 10.035157,0 18.167969,-8.13281 18.167969,-18.16406 0,-10.03516 8.132813,-18.16797 18.167969,-18.16797 h 71.65234 c 10.03125,0 18.16407,-8.13281 18.16407,-18.16797 0,-10.03125 -8.13282,-18.16406 -18.16797,-18.16406 z m 0,0"
           inkscape:connector-curvature="0" />
        <path
           id="path6"
           d="m 177.66797,175.39844 c 0,-10.03125 8.13281,-18.16797 18.16797,-18.16797 H 385.5 c 10.03125,0 18.16797,8.13281 18.16797,18.16797 0,10.03515 8.13281,18.16797 18.16797,18.16797 h 45 c 10.03125,0 18.16406,8.13281 18.16406,18.16796 0,10.03125 -8.13281,18.16407 -18.16406,18.16407 h -12.82422 c -10.03516,0 -18.16797,8.13281 -18.16797,18.16797 0,10.03515 -8.13281,18.16796 -18.16797,18.16796 H 237.60156 c -10.03125,0 -18.16406,-8.13281 -18.16406,-18.16796 0,-10.03125 8.13281,-18.16797 18.16406,-18.16797 h 12.82422 c 10.03516,0 18.16797,-8.13282 18.16797,-18.16407 0,-10.03515 -8.13281,-18.16796 -18.16797,-18.16796 h -54.59375 c -10.03125,0 -18.16406,-8.13282 -18.16406,-18.16797 z m 0,0"
           inkscape:connector-curvature="0" />
        <path
           id="path8"
           d="M 301.96875,152.26172 H 274.16797 C 264.13281,152.26172 256,144.12891 256,134.09766 256,124.0625 247.86719,115.92969 237.83203,115.92969 H 41.707031 c -7.535156,11.5 -14.167969,23.64453 -19.800781,36.33203 h 24.0625 c 10.03125,0 18.167969,8.13281 18.167969,18.16797 0,10.03125 8.132812,18.16797 18.164062,18.16797 H 301.96875 c 10.03516,0 18.16797,-8.13282 18.16797,-18.16797 0,-10.03516 -8.13672,-18.16797 -18.16797,-18.16797 z m 0,0"
           inkscape:connector-curvature="0" />
        <path
           id="path10"
           d="m 510.66797,282.25391 h -34.20313 c -10.03125,0 -18.16406,8.13281 -18.16406,18.16796 0,10.03125 -8.13672,18.16797 -18.16797,18.16797 h -17.80078 c -10.03516,0 -18.16797,8.13282 -18.16797,18.16407 0,10.03515 8.13282,18.16796 18.16797,18.16796 h 69.84766 c 9.53515,-22.74218 15.89062,-47.14843 18.48828,-72.66796 z m 0,0"
           inkscape:connector-curvature="0" />
      </g>
      <path
         id="path14"
         d="M 204.52344,248.30469 H 307.47656 V 389 H 204.52344 Z m 0,0"
         inkscape:connector-curvature="0"
         style="fill:#c1ccd0" />
      <path
         id="path16"
         d="m 430.41406,200.97656 c 0,24.15625 -19.58594,43.74219 -43.74609,43.74219 -24.15625,0 -43.74219,-19.58594 -43.74219,-43.74219 0,-24.16015 19.58594,-43.74609 43.74219,-43.74609 24.16015,0 43.74609,19.58594 43.74609,43.74609 z m 0,0"
         inkscape:connector-curvature="0"
         style="fill:#e2e6e7" />
      <path
         id="path18"
         d="m 169.07422,200.97656 c 0,24.15625 -19.58594,43.74219 -43.74219,43.74219 -24.16015,0 -43.746092,-19.58594 -43.746092,-43.74219 0,-24.16015 19.585942,-43.74609 43.746092,-43.74609 24.15625,0 43.74219,19.58594 43.74219,43.74609 z m 0,0"
         inkscape:connector-curvature="0"
         style="fill:#c1ccd0" />
      <path
         id="path20"
         d="m 256,352.94922 c -72.16797,0 -130.66797,-58.50391 -130.66797,-130.66797 v -74.28906 c 0,-72.167971 58.50391,-130.667971 130.66797,-130.667971 72.16797,0 130.66797,58.503906 130.66797,130.667971 v 74.28906 c 0,72.16406 -58.5,130.66797 -130.66797,130.66797 z m 0,0"
         inkscape:connector-curvature="0"
         style="fill:#fbfcf7" />
      <path
         id="path22"
         d="M 155.33203,222.28125 V 147.99219 C 155.33203,80.898438 205.89844,25.628906 271,18.1875 c -4.92188,-0.566406 -9.92578,-0.863281 -15,-0.863281 -72.16797,0 -130.66797,58.5 -130.66797,130.667971 v 74.28906 c 0,72.16797 58.50391,130.66797 130.66797,130.66797 5.07422,0 10.07812,-0.29688 15,-0.85938 C 205.89844,344.64453 155.33203,289.375 155.33203,222.28125 Z m 0,0"
         inkscape:connector-curvature="0"
         style="fill:#e2e6e7" />
      <path
         id="path24"
         d="m 256,284.00781 c 30.57812,0 55.64844,-23.58203 58.02344,-53.55078 0.19922,-2.51953 -1.85547,-4.65625 -4.38672,-4.65625 H 202.36328 c -2.53125,0 -4.58594,2.13672 -4.38672,4.65625 2.375,29.96875 27.44531,53.55078 58.02344,53.55078 z m 0,0"
         inkscape:connector-curvature="0"
         style="fill:#3e4852" />
      <path
         id="path26"
         d="M 293.86719,269.99609 C 283.90625,260.82422 270.60937,255.21875 256,255.21875 c -14.60938,0 -27.90625,5.60547 -37.86719,14.77734 10.17969,8.73047 23.40235,14.01172 37.86719,14.01172 14.46484,0 27.6875,-5.28125 37.86719,-14.01172 z m 0,0"
         inkscape:connector-curvature="0"
         style="fill:#fd6e99" />
      <path
         id="path28"
         d="m 375.90625,367.3125 c -3.08203,-0.21875 -5.15625,-3.25 -4.20313,-6.19141 l 24.41797,-75.30859 c 0.95313,-2.93359 -1.23437,-5.94531 -4.32031,-5.94531 h -22.29297 c -34.25781,0 -62.03125,27.77343 -62.03125,62.03515 v 25.19141 H 204.52344 v -25.19141 c 0,-34.26172 -27.77344,-62.03515 -62.03125,-62.03515 h -22.29297 c -3.08594,0 -5.27344,3.01172 -4.32031,5.94531 l 24.41796,75.30859 c 0.95313,2.94141 -1.12109,5.97266 -4.20312,6.19141 -33.90625,2.41797 -62.65625,24.69922 -74.0625,55.75781 C 108.98047,477.52344 178.46094,512 256,512 333.53906,512 403.01953,477.52344 449.96875,423.06641 438.5625,392.01172 409.8125,369.73047 375.90625,367.3125 Z m 0,0"
         inkscape:connector-curvature="0"
         style="fill:#3e4852" />
      <path
         id="path30"
         d="m 256,491.02344 c -28.42969,0 -51.47656,-23.04688 -51.47656,-51.47657 v -72.45312 h 102.95312 v 72.45312 c 0,28.42969 -23.04687,51.47657 -51.47656,51.47657 z m 0,0"
         inkscape:connector-curvature="0"
         style="fill:#e2e6e7" />
      <path
         id="path32"
         d="m 256,367.09375 h 51.47656 L 256,449.92578 Z m 0,0"
         inkscape:connector-curvature="0"
         style="fill:#fbfcf7" />
      <path
         id="path34"
         d="m 290.05469,249.85937 12.43359,-23.98046 -0.0781,-0.0781 h -24.90625 z m 0,0"
         inkscape:connector-curvature="0"
         style="fill:#bff8ff" />
      <path
         id="path36"
         d="m 222.05859,249.85937 12.4375,-23.98046 -0.0781,-0.0781 h -24.90625 z m 0,0"
         inkscape:connector-curvature="0"
         style="fill:#bff8ff" />
      <path
         id="path38"
         d="M 256,0 C 174.39844,0 108.00781,66.390625 108.00781,147.99219 v 12.80859 c 5.3125,-2.29297 11.16797,-3.57031 17.32032,-3.57031 v 27.90625 h 0.004 c 10.28906,0 18.62891,-8.33985 18.62891,-18.62891 v -17.91797 c 0,-30.9414 25.07812,-56.019528 56.01953,-56.019528 30.9375,0 45.82031,56.019528 56.01953,56.019528 10.19922,0 25.08203,-56.019528 56.01953,-56.019528 30.94141,0 56.01953,25.078128 56.01953,56.019528 v 17.91797 c 0,10.28906 8.33985,18.62891 18.62891,18.62891 h 0.004 v -27.90625 c 6.15234,0 12.00781,1.27734 17.32031,3.57031 V 147.99219 C 403.99219,66.390625 337.60156,0 256,0 Z m 0,0"
         inkscape:connector-curvature="0"
         style="fill:#3e4852" />
      <path
         id="path40"
         d="M 143.9375,147.99219 C 143.9375,69.882812 205.74219,5.9375 283.01562,2.480469 274.25391,0.855469 265.22656,0 256,0 174.39844,0 108.00781,66.390625 108.00781,147.99219 v 12.80859 c 5.3125,-2.29297 11.16797,-3.57031 17.32032,-3.57031 v 27.90625 h 0.004 c 10.13672,0 18.36719,-8.10547 18.60547,-18.1875 z m 0,0"
         inkscape:connector-curvature="0"
         style="fill:#2e3b43" />
      <path
         id="path42"
         d="m 136.09375,367.3125 c -33.90625,2.41797 -62.65625,24.69922 -74.0625,55.75391 17.449219,20.23828 38.01172,37.71093 60.94141,51.68359 1.33593,-57.92578 29.78125,-86.0625 41.3125,-95.12109 2.82421,-2.22266 3.9375,-5.98828 2.82031,-9.40625 l -29.5625,-90.35547 h -17.34375 c -3.08594,0 -5.27344,3.01172 -4.32031,5.94531 l 24.41796,75.30859 c 0.95313,2.94141 -1.12109,5.97266 -4.20312,6.19141 z m 0,0"
         inkscape:connector-curvature="0"
         style="fill:#2e3b43" />
    </g>
  </g>
</svg>
